<svg id="Livello_2" data-name="Livello 2" xmlns="http://www.w3.org/2000/svg" viewBox="0 0 107.1 334"><defs><style>.cls-1{fill:#4d4d4e;}</style></defs><title>labels</title><path class="cls-1" d="M2.41,7.24a3.53,3.53,0,0,0,.75,1,1.44,1.44,0,0,0,1,.35,0.79,0.79,0,0,0,1-.82,0.76,0.76,0,0,0-.21-0.56,1.82,1.82,0,0,0-.55-0.37L3.6,6.54,3,6.29a2.86,2.86,0,0,1-.6-0.38,1.9,1.9,0,0,1-.48-0.59,1.81,1.81,0,0,1-.19-0.86,1.72,1.72,0,0,1,.3-1,2,2,0,0,1,.83-0.67,2.94,2.94,0,0,1,1.24-.25,2.63,2.63,0,0,1,1.12.22A2.46,2.46,0,0,1,6,3.31a2.89,2.89,0,0,1,.5.73l-1.1.65A2.11,2.11,0,0,0,4.87,4a1.24,1.24,0,0,0-.79-0.26A0.94,0.94,0,0,0,3.44,4a0.66,0.66,0,0,0-.22.52,0.58,0.58,0,0,0,.23.46A2.21,2.21,0,0,0,4,5.28l0.79,0.3A4.14,4.14,0,0,1,5.69,6a2.12,2.12,0,0,1,.67.68,2,2,0,0,1,.25,1,2,2,0,0,1-1.2,1.88,3.09,3.09,0,0,1-1.27.25A2.84,2.84,0,0,1,3,9.61a3.07,3.07,0,0,1-1-.68,3,3,0,0,1-.64-1Z" transform="translate(-1.06 -1.87)"/><path class="cls-1" d="M7,5.07H8.35l1,2.55,1.29-2.9L12,7.63l1-2.56h1.38L12.15,10,10.67,7.06,9.23,10Z" transform="translate(-1.06 -1.87)"/><path class="cls-1" d="M15,3.29a0.67,0.67,0,0,1,.23-0.52,0.84,0.84,0,0,1,1.1,0,0.67,0.67,0,0,1,.23.52,0.69,0.69,0,0,1-.23.53,0.83,0.83,0,0,1-1.1,0A0.69,0.69,0,0,1,15,3.29Zm0.14,1.78h1.27v4.6H15.09V5.07Z" transform="translate(-1.06 -1.87)"/><path class="cls-1" d="M17.13,5.07h0.79V3.47h1.26v1.6H20v1.1H19.18v3.5H17.92V6.17H17.13V5.07Z" transform="translate(-1.06 -1.87)"/><path class="cls-1" d="M21.65,7.37a1.26,1.26,0,0,0,.39,1A1.33,1.33,0,0,0,23,8.7a1.84,1.84,0,0,0,.85-0.2A1.37,1.37,0,0,0,24.41,8V9.3a1.67,1.67,0,0,1-.63.35,2.92,2.92,0,0,1-.89.13,2.83,2.83,0,0,1-1.32-.3,2.28,2.28,0,0,1-.92-0.84,2.35,2.35,0,0,1-.33-1.25,2.34,2.34,0,0,1,.33-1.26,2.3,2.3,0,0,1,.92-0.84A2.83,2.83,0,0,1,22.89,5a2.8,2.8,0,0,1,.89.13,1.93,1.93,0,0,1,.63.33V6.76a1.32,1.32,0,0,0-.6-0.52A1.91,1.91,0,0,0,23,6a1.3,1.3,0,0,0-.94.38A1.28,1.28,0,0,0,21.65,7.37Z" transform="translate(-1.06 -1.87)"/><path class="cls-1" d="M28.51,6.87a1.18,1.18,0,0,0-.17-0.7,0.68,0.68,0,0,0-.58-0.24,0.88,0.88,0,0,0-.66.26,0.94,0.94,0,0,0-.25.69v2.8h-1.3V1.87h1.3V5.73a1.51,1.51,0,0,1,1.39-.81,1.49,1.49,0,0,1,1.19.45,2,2,0,0,1,.39,1.31v3h-1.3V6.87Z" transform="translate(-1.06 -1.87)"/><path class="cls-1" d="M35.08,7.37a1.26,1.26,0,0,0,.39,1,1.33,1.33,0,0,0,.94.36,1.84,1.84,0,0,0,.85-0.2A1.37,1.37,0,0,0,37.84,8V9.3a1.67,1.67,0,0,1-.63.35,2.92,2.92,0,0,1-.89.13A2.83,2.83,0,0,1,35,9.47a2.28,2.28,0,0,1-.92-0.84,2.35,2.35,0,0,1-.33-1.25,2.34,2.34,0,0,1,.33-1.26A2.3,2.3,0,0,1,35,5.27,2.83,2.83,0,0,1,36.32,5a2.8,2.8,0,0,1,.89.13,1.93,1.93,0,0,1,.63.33V6.76a1.32,1.32,0,0,0-.6-0.52A1.91,1.91,0,0,0,36.41,6a1.3,1.3,0,0,0-.94.38A1.28,1.28,0,0,0,35.08,7.37Z" transform="translate(-1.06 -1.87)"/><path class="cls-1" d="M38.66,7.37A2.34,2.34,0,0,1,39,6.11a2.3,2.3,0,0,1,.91-0.84,3,3,0,0,1,2.61,0,2.3,2.3,0,0,1,.91.84,2.34,2.34,0,0,1,.33,1.26,2.35,2.35,0,0,1-.33,1.25,2.29,2.29,0,0,1-.91.84,3,3,0,0,1-2.61,0A2.29,2.29,0,0,1,39,8.62,2.34,2.34,0,0,1,38.66,7.37Zm1.33,0a1.28,1.28,0,0,0,.35.94,1.18,1.18,0,0,0,.86.35,1.19,1.19,0,0,0,.87-0.35,1.27,1.27,0,0,0,.36-0.94,1.28,1.28,0,0,0-.36-1,1.18,1.18,0,0,0-.87-0.36,1.17,1.17,0,0,0-.86.36A1.29,1.29,0,0,0,40,7.37Z" transform="translate(-1.06 -1.87)"/><path class="cls-1" d="M44.73,1.87H46v7.8h-1.3V1.87Z" transform="translate(-1.06 -1.87)"/><path class="cls-1" d="M47,7.37a2.34,2.34,0,0,1,.33-1.26,2.3,2.3,0,0,1,.91-0.84,3,3,0,0,1,2.61,0,2.29,2.29,0,0,1,.91.84,2.33,2.33,0,0,1,.34,1.26,2.34,2.34,0,0,1-.34,1.25,2.28,2.28,0,0,1-.91.84,3,3,0,0,1-2.61,0,2.29,2.29,0,0,1-.91-0.84A2.34,2.34,0,0,1,47,7.37Zm1.33,0a1.28,1.28,0,0,0,.35.94,1.18,1.18,0,0,0,.86.35,1.19,1.19,0,0,0,.87-0.35,1.27,1.27,0,0,0,.36-0.94,1.28,1.28,0,0,0-.36-1,1.18,1.18,0,0,0-.87-0.36,1.17,1.17,0,0,0-.86.36A1.29,1.29,0,0,0,48.33,7.37Z" transform="translate(-1.06 -1.87)"/><path class="cls-1" d="M55.69,6.43a1.31,1.31,0,0,0-.26-0.19,0.69,0.69,0,0,0-.33-0.07,0.63,0.63,0,0,0-.56.29,1.4,1.4,0,0,0-.19.78V9.67H53.07V5.07h1.28V5.63a1.66,1.66,0,0,1,.5-0.49A1.12,1.12,0,0,1,55.45,5a1.27,1.27,0,0,1,.48.09,0.86,0.86,0,0,1,.37.27Z" transform="translate(-1.06 -1.87)"/><path class="cls-1" d="M57.17,8a3.78,3.78,0,0,0,.84.67,1.4,1.4,0,0,0,.62.2A0.67,0.67,0,0,0,59,8.72a0.36,0.36,0,0,0,.16-0.31A0.48,0.48,0,0,0,58.86,8a6.1,6.1,0,0,0-.7-0.29,6.13,6.13,0,0,1-.62-0.27A1.34,1.34,0,0,1,57,7a1.21,1.21,0,0,1-.19-0.71,1.12,1.12,0,0,1,.22-0.71,1.38,1.38,0,0,1,.6-0.43A2.28,2.28,0,0,1,58.51,5a2.56,2.56,0,0,1,1.06.22,2.94,2.94,0,0,1,.82.53l-0.57.81a2.09,2.09,0,0,0-.58-0.44,1.35,1.35,0,0,0-.62-0.17,0.8,0.8,0,0,0-.41.09,0.29,0.29,0,0,0-.15.27,0.34,0.34,0,0,0,.17.3,1.73,1.73,0,0,0,.42.19L59.2,7a4.5,4.5,0,0,1,.62.3,1.46,1.46,0,0,1,.47.43,1.15,1.15,0,0,1,.18.67A1.3,1.3,0,0,1,60,9.48a2,2,0,0,1-1.23.35,2.62,2.62,0,0,1-1.26-.3,3.64,3.64,0,0,1-1-.76Z" transform="translate(-1.06 -1.87)"/><path class="cls-1" d="M2.41,43.24a3.53,3.53,0,0,0,.75,1,1.44,1.44,0,0,0,1,.35,0.79,0.79,0,0,0,1-.82,0.76,0.76,0,0,0-.21-0.56,1.82,1.82,0,0,0-.55-0.37l-0.74-.3L3,42.29a2.86,2.86,0,0,1-.6-0.38,1.9,1.9,0,0,1-.48-0.59,1.81,1.81,0,0,1-.19-0.86,1.72,1.72,0,0,1,.3-1,2,2,0,0,1,.83-0.67,2.94,2.94,0,0,1,1.24-.25,2.63,2.63,0,0,1,1.12.22,2.46,2.46,0,0,1,.78.56,2.89,2.89,0,0,1,.5.73l-1.1.65A2.11,2.11,0,0,0,4.87,40a1.24,1.24,0,0,0-.79-0.26,0.94,0.94,0,0,0-.64.19,0.66,0.66,0,0,0-.22.52,0.58,0.58,0,0,0,.23.46,2.21,2.21,0,0,0,.59.34l0.79,0.3a4.14,4.14,0,0,1,.86.43,2.12,2.12,0,0,1,.67.68,2,2,0,0,1,.25,1,2,2,0,0,1-1.2,1.88,3.09,3.09,0,0,1-1.27.25A2.84,2.84,0,0,1,3,45.61a3.07,3.07,0,0,1-1-.68,3,3,0,0,1-.64-1Z" transform="translate(-1.06 -1.87)"/><path class="cls-1" d="M7,41.07H8.35l1,2.55,1.29-2.9L12,43.63l1-2.56h1.38L12.15,46l-1.48-2.92L9.23,46Z" transform="translate(-1.06 -1.87)"/><path class="cls-1" d="M15,39.29a0.67,0.67,0,0,1,.23-0.52,0.84,0.84,0,0,1,1.1,0,0.67,0.67,0,0,1,.23.52,0.69,0.69,0,0,1-.23.53,0.83,0.83,0,0,1-1.1,0A0.69,0.69,0,0,1,15,39.29Zm0.14,1.78h1.27v4.6H15.09v-4.6Z" transform="translate(-1.06 -1.87)"/><path class="cls-1" d="M17.13,41.07h0.79v-1.6h1.26v1.6H20v1.1H19.18v3.5H17.92v-3.5H17.13v-1.1Z" transform="translate(-1.06 -1.87)"/><path class="cls-1" d="M21.65,43.37a1.26,1.26,0,0,0,.39,1,1.33,1.33,0,0,0,.94.36,1.84,1.84,0,0,0,.85-0.2A1.37,1.37,0,0,0,24.41,44V45.3a1.67,1.67,0,0,1-.63.35,2.92,2.92,0,0,1-.89.13,2.83,2.83,0,0,1-1.32-.3,2.28,2.28,0,0,1-.92-0.84,2.53,2.53,0,0,1,0-2.52,2.3,2.3,0,0,1,.92-0.84,2.83,2.83,0,0,1,1.32-.3,2.8,2.8,0,0,1,.89.13,1.93,1.93,0,0,1,.63.33v1.33a1.32,1.32,0,0,0-.6-0.52A1.91,1.91,0,0,0,23,42a1.3,1.3,0,0,0-.94.38A1.28,1.28,0,0,0,21.65,43.37Z" transform="translate(-1.06 -1.87)"/><path class="cls-1" d="M28.51,42.87a1.18,1.18,0,0,0-.17-0.7,0.68,0.68,0,0,0-.58-0.24,0.88,0.88,0,0,0-.66.26,0.94,0.94,0,0,0-.25.69v2.8h-1.3v-7.8h1.3v3.86a1.51,1.51,0,0,1,1.39-.81,1.49,1.49,0,0,1,1.19.45,2,2,0,0,1,.39,1.31v3h-1.3v-2.8Z" transform="translate(-1.06 -1.87)"/><path class="cls-1" d="M34.29,44a3.78,3.78,0,0,0,.85.67,1.4,1.4,0,0,0,.61.2,0.67,0.67,0,0,0,.39-0.1,0.36,0.36,0,0,0,.15-0.31A0.48,0.48,0,0,0,36,44a6.1,6.1,0,0,0-.7-0.29,6.13,6.13,0,0,1-.62-0.27A1.33,1.33,0,0,1,34.17,43,1.21,1.21,0,0,1,34,42.26a1.12,1.12,0,0,1,.23-0.71,1.38,1.38,0,0,1,.6-0.43A2.28,2.28,0,0,1,35.63,41a2.56,2.56,0,0,1,1.06.22,2.94,2.94,0,0,1,.82.53l-0.57.81a2.1,2.1,0,0,0-.58-0.44,1.35,1.35,0,0,0-.62-0.17,0.8,0.8,0,0,0-.4.09,0.29,0.29,0,0,0-.15.27,0.34,0.34,0,0,0,.16.3,1.76,1.76,0,0,0,.43.19L36.32,43a4.53,4.53,0,0,1,.62.3,1.47,1.47,0,0,1,.47.43,1.15,1.15,0,0,1,.18.67,1.3,1.3,0,0,1-.46,1.11,2,2,0,0,1-1.23.35,2.62,2.62,0,0,1-1.26-.3,3.64,3.64,0,0,1-1-.76Z" transform="translate(-1.06 -1.87)"/><path class="cls-1" d="M43,44.47a2.46,2.46,0,0,1-2.39,1.3,2.71,2.71,0,0,1-1.33-.31,2.11,2.11,0,0,1-.85-0.85,2.55,2.55,0,0,1-.29-1.23c0-.09,0-0.17,0-0.25s0-.16,0-0.24A2.22,2.22,0,0,1,39,41.5,2.52,2.52,0,0,1,40.66,41a2.39,2.39,0,0,1,1.77.63A2.32,2.32,0,0,1,43,43.31v0.15c0,0.06,0,.13,0,0.2H39.5a1.27,1.27,0,0,0,.38.85,1.15,1.15,0,0,0,.77.27,1.48,1.48,0,0,0,.75-0.17,1.38,1.38,0,0,0,.5-0.48Zm-2.4-2.58a1.12,1.12,0,0,0-.74.25,1.11,1.11,0,0,0-.37.71h2.14a1.18,1.18,0,0,0-.3-0.71A1,1,0,0,0,40.64,41.89Z" transform="translate(-1.06 -1.87)"/><path class="cls-1" d="M45,43.37a1.26,1.26,0,0,0,.39,1,1.33,1.33,0,0,0,.94.36,1.84,1.84,0,0,0,.85-0.2A1.37,1.37,0,0,0,47.78,44V45.3a1.67,1.67,0,0,1-.63.35,2.92,2.92,0,0,1-.89.13,2.83,2.83,0,0,1-1.32-.3A2.28,2.28,0,0,1,44,44.62a2.53,2.53,0,0,1,0-2.52,2.3,2.3,0,0,1,.92-0.84,2.83,2.83,0,0,1,1.32-.3,2.8,2.8,0,0,1,.89.13,1.93,1.93,0,0,1,.63.33v1.33a1.32,1.32,0,0,0-.6-0.52A1.91,1.91,0,0,0,46.35,42a1.3,1.3,0,0,0-.94.38A1.28,1.28,0,0,0,45,43.37Z" transform="translate(-1.06 -1.87)"/><path class="cls-1" d="M48.6,43.37a2.34,2.34,0,0,1,.33-1.26,2.3,2.3,0,0,1,.91-0.84,3,3,0,0,1,2.61,0,2.3,2.3,0,0,1,.91.84,2.53,2.53,0,0,1,0,2.52,2.29,2.29,0,0,1-.91.84,3,3,0,0,1-2.61,0,2.29,2.29,0,0,1-.91-0.84A2.34,2.34,0,0,1,48.6,43.37Zm1.33,0a1.28,1.28,0,0,0,.35.94,1.18,1.18,0,0,0,.86.35A1.19,1.19,0,0,0,52,44.31a1.27,1.27,0,0,0,.36-0.94,1.28,1.28,0,0,0-.36-1,1.19,1.19,0,0,0-.87-0.36,1.17,1.17,0,0,0-.86.36A1.29,1.29,0,0,0,49.93,43.37Z" transform="translate(-1.06 -1.87)"/><path class="cls-1" d="M57.64,42.87a1.18,1.18,0,0,0-.18-0.7,0.67,0.67,0,0,0-.58-0.24,0.88,0.88,0,0,0-.66.26,0.93,0.93,0,0,0-.25.69v2.8h-1.3v-4.6H56v0.7a1.57,1.57,0,0,1,.55-0.58,1.8,1.8,0,0,1,2.05.23A1.89,1.89,0,0,1,59,42.73v2.94H57.64v-2.8Z" transform="translate(-1.06 -1.87)"/><path class="cls-1" d="M59.95,43.37a2.57,2.57,0,0,1,.31-1.31,2.13,2.13,0,0,1,.82-0.81A2.2,2.2,0,0,1,62.16,41a1.77,1.77,0,0,1,1.57.84V37.87H65v7.8h-1.3V44.93a1.77,1.77,0,0,1-1.57.84,2.2,2.2,0,0,1-1.08-.28,2.12,2.12,0,0,1-.82-0.82A2.58,2.58,0,0,1,59.95,43.37Zm1.35,0a1.3,1.3,0,0,0,.37,1,1.2,1.2,0,0,0,.88.36,1.09,1.09,0,0,0,.56-0.16,1.31,1.31,0,0,0,.45-0.46,1.51,1.51,0,0,0,0-1.43,1.31,1.31,0,0,0-.45-0.46A1.09,1.09,0,0,0,62.54,42a1.21,1.21,0,0,0-.87.35A1.3,1.3,0,0,0,61.3,43.37Z" transform="translate(-1.06 -1.87)"/><path class="cls-1" d="M66.79,42.38l-0.47-.89a5.74,5.74,0,0,1,.86-0.36,3.46,3.46,0,0,1,1.13-.18,2.58,2.58,0,0,1,1.46.38,1.22,1.22,0,0,1,.57,1.08v3.26H69.09V45a1.31,1.31,0,0,1-.62.56,2.17,2.17,0,0,1-.93.2,1.87,1.87,0,0,1-1.18-.36,1.25,1.25,0,0,1-.46-1.05,1.3,1.3,0,0,1,.54-1.1,2.36,2.36,0,0,1,1.45-.4,2.45,2.45,0,0,1,.68.09,3.17,3.17,0,0,1,.53.2V42.62a0.57,0.57,0,0,0-.24-0.49A1,1,0,0,0,68.23,42a2.37,2.37,0,0,0-.88.15A3.51,3.51,0,0,0,66.79,42.38ZM67.2,44.3a0.47,0.47,0,0,0,.23.43,1,1,0,0,0,.54.15,1.36,1.36,0,0,0,.8-0.23,0.92,0.92,0,0,0,.33-0.81h0a2.08,2.08,0,0,0-1-.21,1.11,1.11,0,0,0-.7.19A0.61,0.61,0,0,0,67.2,44.3Z" transform="translate(-1.06 -1.87)"/><path class="cls-1" d="M74.16,42.43a1.31,1.31,0,0,0-.26-0.19,0.69,0.69,0,0,0-.33-0.07,0.63,0.63,0,0,0-.56.29,1.4,1.4,0,0,0-.19.78v2.43H71.54v-4.6h1.28v0.56a1.66,1.66,0,0,1,.5-0.49,1.12,1.12,0,0,1,.6-0.18,1.27,1.27,0,0,1,.48.09,0.86,0.86,0,0,1,.37.27Z" transform="translate(-1.06 -1.87)"/><path class="cls-1" d="M80.13,41.07l-3,6.8H75.79L77,45.21,75,41.07h1.44l1.15,2.85,1.14-2.85h1.36Z" transform="translate(-1.06 -1.87)"/><path class="cls-1" d="M84.69,43.37a1.26,1.26,0,0,0,.38,1,1.33,1.33,0,0,0,.95.36,1.83,1.83,0,0,0,.85-0.2A1.35,1.35,0,0,0,87.45,44V45.3a1.67,1.67,0,0,1-.63.35,2.92,2.92,0,0,1-.89.13,2.83,2.83,0,0,1-1.32-.3,2.28,2.28,0,0,1-.92-0.84,2.53,2.53,0,0,1,0-2.52,2.3,2.3,0,0,1,.92-0.84,2.83,2.83,0,0,1,1.32-.3,2.8,2.8,0,0,1,.89.13,1.93,1.93,0,0,1,.63.33v1.33a1.31,1.31,0,0,0-.59-0.52A1.91,1.91,0,0,0,86,42a1.3,1.3,0,0,0-.95.38A1.28,1.28,0,0,0,84.69,43.37Z" transform="translate(-1.06 -1.87)"/><path class="cls-1" d="M88.27,43.37a2.34,2.34,0,0,1,.33-1.26,2.3,2.3,0,0,1,.91-0.84,3,3,0,0,1,2.61,0,2.3,2.3,0,0,1,.91.84,2.53,2.53,0,0,1,0,2.52,2.29,2.29,0,0,1-.91.84,3,3,0,0,1-2.61,0,2.29,2.29,0,0,1-.91-0.84A2.34,2.34,0,0,1,88.27,43.37Zm1.33,0a1.28,1.28,0,0,0,.35.94,1.18,1.18,0,0,0,.87.35,1.19,1.19,0,0,0,.87-0.35A1.27,1.27,0,0,0,92,43.37a1.28,1.28,0,0,0-.36-1,1.19,1.19,0,0,0-.87-0.36,1.17,1.17,0,0,0-.87.36A1.3,1.3,0,0,0,89.6,43.37Z" transform="translate(-1.06 -1.87)"/><path class="cls-1" d="M94.34,37.87h1.3v7.8h-1.3v-7.8Z" transform="translate(-1.06 -1.87)"/><path class="cls-1" d="M96.61,43.37a2.34,2.34,0,0,1,.33-1.26,2.3,2.3,0,0,1,.91-0.84,3,3,0,0,1,2.61,0,2.3,2.3,0,0,1,.91.84,2.53,2.53,0,0,1,0,2.52,2.29,2.29,0,0,1-.91.84,3,3,0,0,1-2.61,0,2.29,2.29,0,0,1-.91-0.84A2.34,2.34,0,0,1,96.61,43.37Zm1.33,0a1.28,1.28,0,0,0,.35.94,1.18,1.18,0,0,0,.87.35,1.19,1.19,0,0,0,.87-0.35,1.27,1.27,0,0,0,.36-0.94,1.28,1.28,0,0,0-.36-1,1.19,1.19,0,0,0-.87-0.36,1.17,1.17,0,0,0-.87.36A1.3,1.3,0,0,0,97.94,43.37Z" transform="translate(-1.06 -1.87)"/><path class="cls-1" d="M105.3,42.43a1.31,1.31,0,0,0-.26-0.19,0.69,0.69,0,0,0-.33-0.07,0.63,0.63,0,0,0-.56.29,1.4,1.4,0,0,0-.19.78v2.43h-1.28v-4.6H104v0.56a1.66,1.66,0,0,1,.5-0.49,1.12,1.12,0,0,1,.6-0.18,1.27,1.27,0,0,1,.48.09,0.86,0.86,0,0,1,.37.27Z" transform="translate(-1.06 -1.87)"/><path class="cls-1" d="M1.06,76v-1.3h5.2V76H4.38v5.7H2.94V76H1.06Z" transform="translate(-1.06 -1.87)"/><path class="cls-1" d="M9.93,78.87a1.18,1.18,0,0,0-.17-0.7,0.68,0.68,0,0,0-.58-0.24,0.88,0.88,0,0,0-.66.26,0.94,0.94,0,0,0-.25.69v2.8H7v-7.8h1.3v3.86a1.51,1.51,0,0,1,1.39-.81,1.49,1.49,0,0,1,1.19.45,2,2,0,0,1,.39,1.31v3H9.93v-2.8Z" transform="translate(-1.06 -1.87)"/><path class="cls-1" d="M17.07,80.47a2.74,2.74,0,0,1-.89.95,2.74,2.74,0,0,1-1.5.35,2.71,2.71,0,0,1-1.33-.31,2.11,2.11,0,0,1-.85-0.85,2.55,2.55,0,0,1-.29-1.23c0-.09,0-0.17,0-0.25s0-.16,0-0.24A2.22,2.22,0,0,1,13,77.5,2.52,2.52,0,0,1,14.69,77a2.39,2.39,0,0,1,1.77.63,2.32,2.32,0,0,1,.63,1.72v0.15c0,0.06,0,.13,0,0.2H13.53a1.27,1.27,0,0,0,.38.85,1.15,1.15,0,0,0,.77.27,1.48,1.48,0,0,0,.75-0.17,1.38,1.38,0,0,0,.5-0.48Zm-2.4-2.58a1.12,1.12,0,0,0-.74.25,1.11,1.11,0,0,0-.37.71h2.14a1.18,1.18,0,0,0-.3-0.71A1,1,0,0,0,14.67,77.89Z" transform="translate(-1.06 -1.87)"/><path class="cls-1" d="M20.79,78.87a1.34,1.34,0,0,0-.15-0.7,0.58,0.58,0,0,0-.53-0.24,0.71,0.71,0,0,0-.58.26,1.06,1.06,0,0,0-.21.69v2.8H18.06v-4.6h1.26v0.67a1.51,1.51,0,0,1,.52-0.56A1.44,1.44,0,0,1,20.63,77a1.26,1.26,0,0,1,1.32.77,1.81,1.81,0,0,1,.62-0.56A1.68,1.68,0,0,1,23.4,77a1.32,1.32,0,0,1,1.12.45,2.15,2.15,0,0,1,.34,1.31v2.94h-1.3v-2.8a1.37,1.37,0,0,0-.15-0.7,0.56,0.56,0,0,0-.52-0.24,0.72,0.72,0,0,0-.59.26,1,1,0,0,0-.21.69v2.8h-1.3v-2.8Z" transform="translate(-1.06 -1.87)"/><path class="cls-1" d="M30.7,80.47a2.46,2.46,0,0,1-2.39,1.3A2.71,2.71,0,0,1,27,81.46a2.11,2.11,0,0,1-.85-0.85,2.55,2.55,0,0,1-.29-1.23c0-.09,0-0.17,0-0.25s0-.16,0-0.24a2.22,2.22,0,0,1,.76-1.38A2.52,2.52,0,0,1,28.32,77a2.39,2.39,0,0,1,1.77.63,2.32,2.32,0,0,1,.63,1.72v0.15c0,0.06,0,.13,0,0.2H27.16a1.27,1.27,0,0,0,.38.85,1.15,1.15,0,0,0,.77.27,1.48,1.48,0,0,0,.75-0.17,1.38,1.38,0,0,0,.5-0.48Zm-2.4-2.58a1.12,1.12,0,0,0-.74.25,1.11,1.11,0,0,0-.37.71h2.14a1.18,1.18,0,0,0-.3-0.71A1,1,0,0,0,28.3,77.89Z" transform="translate(-1.06 -1.87)"/><path class="cls-1" d="M31.89,80a3.78,3.78,0,0,0,.85.67,1.4,1.4,0,0,0,.61.2,0.67,0.67,0,0,0,.39-0.1,0.36,0.36,0,0,0,.15-0.31,0.48,0.48,0,0,0-.3-0.45,6.1,6.1,0,0,0-.7-0.29,6.13,6.13,0,0,1-.62-0.27A1.33,1.33,0,0,1,31.77,79a1.21,1.21,0,0,1-.19-0.71,1.12,1.12,0,0,1,.23-0.71,1.38,1.38,0,0,1,.6-0.43A2.28,2.28,0,0,1,33.23,77a2.56,2.56,0,0,1,1.06.22,2.94,2.94,0,0,1,.82.53l-0.57.81A2.1,2.1,0,0,0,34,78.09a1.35,1.35,0,0,0-.62-0.17,0.8,0.8,0,0,0-.4.09,0.29,0.29,0,0,0-.15.27,0.34,0.34,0,0,0,.16.3,1.76,1.76,0,0,0,.43.19L33.92,79a4.53,4.53,0,0,1,.62.3,1.47,1.47,0,0,1,.47.43,1.15,1.15,0,0,1,.18.67,1.3,1.3,0,0,1-.46,1.11,2,2,0,0,1-1.23.35,2.62,2.62,0,0,1-1.26-.3,3.64,3.64,0,0,1-1-.76Z" transform="translate(-1.06 -1.87)"/><path class="cls-1" d="M1.06,112v-1.3h5.2V112H4.38v5.7H2.94V112H1.06Z" transform="translate(-1.06 -1.87)"/><path class="cls-1" d="M10.52,116.47a2.74,2.74,0,0,1-.89.95,2.74,2.74,0,0,1-1.5.35,2.71,2.71,0,0,1-1.33-.31,2.11,2.11,0,0,1-.85-0.85,2.55,2.55,0,0,1-.29-1.23c0-.09,0-0.17,0-0.25s0-.16,0-0.24a2.22,2.22,0,0,1,.76-1.38A2.52,2.52,0,0,1,8.14,113a2.39,2.39,0,0,1,1.77.63,2.32,2.32,0,0,1,.63,1.72v0.15c0,0.06,0,.13,0,0.2H7a1.27,1.27,0,0,0,.38.85,1.15,1.15,0,0,0,.77.27,1.48,1.48,0,0,0,.75-0.17,1.38,1.38,0,0,0,.5-0.48Zm-2.4-2.58a1.12,1.12,0,0,0-.74.25,1.11,1.11,0,0,0-.37.71H9.14a1.18,1.18,0,0,0-.3-0.71A1,1,0,0,0,8.12,113.89Z" transform="translate(-1.06 -1.87)"/><path class="cls-1" d="M14.24,114.87a1.34,1.34,0,0,0-.15-0.7,0.58,0.58,0,0,0-.53-0.24,0.71,0.71,0,0,0-.58.26,1.06,1.06,0,0,0-.21.69v2.8H11.51v-4.6h1.26v0.67a1.51,1.51,0,0,1,.52-0.56,1.44,1.44,0,0,1,.79-0.21,1.26,1.26,0,0,1,1.32.77,1.81,1.81,0,0,1,.62-0.56,1.68,1.68,0,0,1,.83-0.21,1.32,1.32,0,0,1,1.12.45,2.15,2.15,0,0,1,.34,1.31v2.94H17v-2.8a1.37,1.37,0,0,0-.15-0.7,0.56,0.56,0,0,0-.52-0.24,0.72,0.72,0,0,0-.59.26,1,1,0,0,0-.21.69v2.8h-1.3v-2.8Z" transform="translate(-1.06 -1.87)"/><path class="cls-1" d="M20.86,119.87h-1.3v-6.8h1.3v0.76a1.8,1.8,0,0,1,.65-0.67,1.78,1.78,0,0,1,.92-0.24,2.2,2.2,0,0,1,1.08.28,2.14,2.14,0,0,1,.82.83,3,3,0,0,1,0,2.67,2.14,2.14,0,0,1-.82.82,2.2,2.2,0,0,1-1.08.28,1.78,1.78,0,0,1-.92-0.24,1.8,1.8,0,0,1-.65-0.66v3Zm2.44-4.5a1.21,1.21,0,0,0-.37-1,1.28,1.28,0,0,0-.88-0.33,1.18,1.18,0,0,0-.56.15,1.19,1.19,0,0,0-.46.43,1.47,1.47,0,0,0,0,1.41,1.21,1.21,0,0,0,1,.58,1.27,1.27,0,0,0,.88-0.33A1.21,1.21,0,0,0,23.3,115.37Z" transform="translate(-1.06 -1.87)"/><path class="cls-1" d="M25.61,109.87h1.3v7.8h-1.3v-7.8Z" transform="translate(-1.06 -1.87)"/><path class="cls-1" d="M28.7,114.38l-0.47-.89a5.71,5.71,0,0,1,.86-0.36,3.46,3.46,0,0,1,1.13-.18,2.58,2.58,0,0,1,1.46.38,1.22,1.22,0,0,1,.57,1.08v3.26H31V117a1.31,1.31,0,0,1-.62.56,2.17,2.17,0,0,1-.94.2,1.86,1.86,0,0,1-1.17-.36,1.25,1.25,0,0,1-.47-1.05,1.3,1.3,0,0,1,.54-1.1,2.36,2.36,0,0,1,1.45-.4,2.45,2.45,0,0,1,.68.09,3.2,3.2,0,0,1,.53.2v-0.53a0.57,0.57,0,0,0-.24-0.49,1,1,0,0,0-.62-0.17,2.37,2.37,0,0,0-.88.15A3.52,3.52,0,0,0,28.7,114.38Zm0.41,1.92a0.47,0.47,0,0,0,.23.43,1,1,0,0,0,.53.15,1.37,1.37,0,0,0,.8-0.23,0.92,0.92,0,0,0,.33-0.81h0a2.08,2.08,0,0,0-1-.21,1.11,1.11,0,0,0-.7.19A0.61,0.61,0,0,0,29.11,116.3Z" transform="translate(-1.06 -1.87)"/><path class="cls-1" d="M32.86,113.07h0.79v-1.6h1.26v1.6H35.7v1.1H34.91v3.5H33.65v-3.5H32.86v-1.1Z" transform="translate(-1.06 -1.87)"/><path class="cls-1" d="M40.95,116.47a2.46,2.46,0,0,1-2.39,1.3,2.71,2.71,0,0,1-1.33-.31,2.11,2.11,0,0,1-.85-0.85,2.55,2.55,0,0,1-.29-1.23c0-.09,0-0.17,0-0.25s0-.16,0-0.24a2.22,2.22,0,0,1,.76-1.38,2.52,2.52,0,0,1,1.69-.53,2.39,2.39,0,0,1,1.77.63,2.32,2.32,0,0,1,.63,1.72v0.15c0,0.06,0,.13,0,0.2H37.41a1.27,1.27,0,0,0,.38.85,1.15,1.15,0,0,0,.77.27,1.48,1.48,0,0,0,.75-0.17,1.38,1.38,0,0,0,.5-0.48Zm-2.4-2.58a1.12,1.12,0,0,0-.74.25,1.11,1.11,0,0,0-.37.71h2.14a1.18,1.18,0,0,0-.3-0.71A1,1,0,0,0,38.55,113.89Z" transform="translate(-1.06 -1.87)"/><path class="cls-1" d="M42.14,116a3.78,3.78,0,0,0,.85.67,1.4,1.4,0,0,0,.61.2,0.67,0.67,0,0,0,.39-0.1,0.36,0.36,0,0,0,.15-0.31,0.48,0.48,0,0,0-.3-0.45,6.1,6.1,0,0,0-.7-0.29,6.13,6.13,0,0,1-.62-0.27A1.33,1.33,0,0,1,42,115a1.21,1.21,0,0,1-.19-0.71,1.12,1.12,0,0,1,.23-0.71,1.38,1.38,0,0,1,.6-0.43,2.28,2.28,0,0,1,.83-0.15,2.56,2.56,0,0,1,1.06.22,2.94,2.94,0,0,1,.82.53l-0.57.81a2.1,2.1,0,0,0-.58-0.44,1.35,1.35,0,0,0-.62-0.17,0.8,0.8,0,0,0-.4.09,0.29,0.29,0,0,0-.15.27,0.34,0.34,0,0,0,.16.3,1.76,1.76,0,0,0,.43.19L44.17,115a4.53,4.53,0,0,1,.62.3,1.47,1.47,0,0,1,.47.43,1.15,1.15,0,0,1,.18.67,1.3,1.3,0,0,1-.46,1.11,2,2,0,0,1-1.23.35,2.62,2.62,0,0,1-1.26-.3,3.64,3.64,0,0,1-1-.76Z" transform="translate(-1.06 -1.87)"/><path class="cls-1" d="M1.76,146.67H4a2.86,2.86,0,0,1,1.93.59,2.28,2.28,0,0,1,0,3.27,2.85,2.85,0,0,1-1.93.6H3.19v2.54H1.76v-7ZM4,147.88H3.19v2H4a1.43,1.43,0,0,0,.9-0.26,1,1,0,0,0,0-1.52A1.43,1.43,0,0,0,4,147.88Z" transform="translate(-1.06 -1.87)"/><path class="cls-1" d="M7.63,145.87h1.3v7.8H7.63v-7.8Z" transform="translate(-1.06 -1.87)"/><path class="cls-1" d="M11.55,151.87a1.13,1.13,0,0,0,.19.7,0.69,0.69,0,0,0,.58.24,0.88,0.88,0,0,0,.66-0.25,0.94,0.94,0,0,0,.25-0.68v-2.8h1.29v4.6H13.23V153a1.58,1.58,0,0,1-.55.58,1.55,1.55,0,0,1-.84.22,1.57,1.57,0,0,1-1.22-.45,1.88,1.88,0,0,1-.41-1.31v-2.94h1.34v2.8Z" transform="translate(-1.06 -1.87)"/><path class="cls-1" d="M15.58,154h1.27a0.92,0.92,0,0,0,.35.71A1.3,1.3,0,0,0,18,155a1.24,1.24,0,0,0,.87-0.34,1.37,1.37,0,0,0,.37-1v-0.7a1.77,1.77,0,0,1-1.57.81,2.27,2.27,0,0,1-1.08-.27,2.08,2.08,0,0,1-.81-0.79,2.84,2.84,0,0,1,0-2.58,2.06,2.06,0,0,1,.81-0.79A2.26,2.26,0,0,1,17.7,149a1.76,1.76,0,0,1,1.57.82v-0.72h1.26v4.5a2.62,2.62,0,0,1-.34,1.4,2,2,0,0,1-.9.8,2.91,2.91,0,0,1-1.22.25,2.59,2.59,0,0,1-1.82-.57A2.12,2.12,0,0,1,15.58,154Zm1.26-2.66a1.22,1.22,0,0,0,.36.95,1.25,1.25,0,0,0,.88.33,1.17,1.17,0,0,0,.56-0.15,1.21,1.21,0,0,0,.45-0.43,1.3,1.3,0,0,0,.18-0.71,1.32,1.32,0,0,0-.18-0.71,1.2,1.2,0,0,0-.45-0.44,1.17,1.17,0,0,0-.56-0.14,1.25,1.25,0,0,0-.87.33A1.23,1.23,0,0,0,16.84,151.33Z" transform="translate(-1.06 -1.87)"/><path class="cls-1" d="M21.72,147.29a0.67,0.67,0,0,1,.23-0.53,0.84,0.84,0,0,1,1.1,0,0.67,0.67,0,0,1,.23.53,0.69,0.69,0,0,1-.23.53,0.83,0.83,0,0,1-1.1,0A0.69,0.69,0,0,1,21.72,147.29Zm0.14,1.78h1.27v4.6H21.86v-4.6Z" transform="translate(-1.06 -1.87)"/><path class="cls-1" d="M27.46,150.87a1.18,1.18,0,0,0-.17-0.7,0.68,0.68,0,0,0-.58-0.24,0.88,0.88,0,0,0-.66.25,0.94,0.94,0,0,0-.25.69v2.8h-1.3v-4.6h1.3v0.7a1.59,1.59,0,0,1,.55-0.58,1.8,1.8,0,0,1,2.05.23,1.9,1.9,0,0,1,.41,1.31v2.94H27.46v-2.8Z" transform="translate(-1.06 -1.87)"/><path class="cls-1" d="M30.28,152a3.77,3.77,0,0,0,.85.67,1.39,1.39,0,0,0,.61.2,0.67,0.67,0,0,0,.39-0.11,0.35,0.35,0,0,0,.15-0.31A0.48,0.48,0,0,0,32,152a6.1,6.1,0,0,0-.7-0.29,6.13,6.13,0,0,1-.62-0.28,1.32,1.32,0,0,1-.49-0.42,1.2,1.2,0,0,1-.19-0.71,1.12,1.12,0,0,1,.23-0.71,1.37,1.37,0,0,1,.6-0.43,2.27,2.27,0,0,1,.83-0.15,2.58,2.58,0,0,1,1.06.21,3,3,0,0,1,.82.54l-0.57.81a2.1,2.1,0,0,0-.58-0.44,1.35,1.35,0,0,0-.62-0.17,0.8,0.8,0,0,0-.4.09,0.29,0.29,0,0,0-.15.27,0.34,0.34,0,0,0,.16.3,1.76,1.76,0,0,0,.43.2L32.31,151a4.52,4.52,0,0,1,.62.3,1.47,1.47,0,0,1,.47.43,1.15,1.15,0,0,1,.18.67,1.31,1.31,0,0,1-.46,1.12,2,2,0,0,1-1.23.34,2.64,2.64,0,0,1-1.26-.3,3.66,3.66,0,0,1-1-.76Z" transform="translate(-1.06 -1.87)"/><path class="cls-1" d="M1.06,184v-1.3h5.2V184H4.38v5.7H2.94V184H1.06Z" transform="translate(-1.06 -1.87)"/><path class="cls-1" d="M9.93,186.87a1.18,1.18,0,0,0-.17-0.7,0.68,0.68,0,0,0-.58-0.24,0.88,0.88,0,0,0-.66.25,0.94,0.94,0,0,0-.25.69v2.8H7v-7.8h1.3v3.86a1.57,1.57,0,0,1,.55-0.59,1.55,1.55,0,0,1,.84-0.22,1.49,1.49,0,0,1,1.19.45,2,2,0,0,1,.39,1.31v3H9.93v-2.8Z" transform="translate(-1.06 -1.87)"/><path class="cls-1" d="M17.07,188.47a2.46,2.46,0,0,1-2.39,1.3,2.7,2.7,0,0,1-1.33-.31,2.11,2.11,0,0,1-.85-0.86,2.55,2.55,0,0,1-.29-1.23c0-.09,0-0.17,0-0.25s0-.16,0-0.24A2.22,2.22,0,0,1,13,185.5a2.52,2.52,0,0,1,1.69-.53,2.39,2.39,0,0,1,1.77.63,2.32,2.32,0,0,1,.63,1.71v0.15c0,0.06,0,.13,0,0.2H13.53a1.27,1.27,0,0,0,.38.85,1.15,1.15,0,0,0,.77.27,1.47,1.47,0,0,0,.75-0.18,1.38,1.38,0,0,0,.5-0.48Zm-2.4-2.58a1.12,1.12,0,0,0-.74.25,1.11,1.11,0,0,0-.37.72h2.14a1.18,1.18,0,0,0-.3-0.71A1,1,0,0,0,14.67,185.89Z" transform="translate(-1.06 -1.87)"/><path class="cls-1" d="M20.79,186.87a1.34,1.34,0,0,0-.15-0.7,0.58,0.58,0,0,0-.53-0.24,0.71,0.71,0,0,0-.58.25,1.06,1.06,0,0,0-.21.69v2.8H18.06v-4.6h1.26v0.67a1.51,1.51,0,0,1,.52-0.56,1.44,1.44,0,0,1,.79-0.21,1.26,1.26,0,0,1,1.32.77,1.81,1.81,0,0,1,.62-0.56A1.68,1.68,0,0,1,23.4,185a1.32,1.32,0,0,1,1.12.45,2.15,2.15,0,0,1,.34,1.31v2.94h-1.3v-2.8a1.37,1.37,0,0,0-.15-0.7,0.56,0.56,0,0,0-.52-0.24,0.72,0.72,0,0,0-.59.25,1,1,0,0,0-.21.69v2.8h-1.3v-2.8Z" transform="translate(-1.06 -1.87)"/><path class="cls-1" d="M30.7,188.47a2.46,2.46,0,0,1-2.39,1.3,2.7,2.7,0,0,1-1.33-.31,2.11,2.11,0,0,1-.85-0.86,2.55,2.55,0,0,1-.29-1.23c0-.09,0-0.17,0-0.25s0-.16,0-0.24a2.22,2.22,0,0,1,.76-1.38,2.52,2.52,0,0,1,1.69-.53,2.39,2.39,0,0,1,1.77.63,2.32,2.32,0,0,1,.63,1.71v0.15c0,0.06,0,.13,0,0.2H27.16a1.27,1.27,0,0,0,.38.85,1.15,1.15,0,0,0,.77.27,1.47,1.47,0,0,0,.75-0.18,1.38,1.38,0,0,0,.5-0.48Zm-2.4-2.58a1.12,1.12,0,0,0-.74.25,1.11,1.11,0,0,0-.37.72h2.14a1.18,1.18,0,0,0-.3-0.71A1,1,0,0,0,28.3,185.89Z" transform="translate(-1.06 -1.87)"/><path class="cls-1" d="M31.89,188a3.77,3.77,0,0,0,.85.67,1.39,1.39,0,0,0,.61.2,0.67,0.67,0,0,0,.39-0.11,0.35,0.35,0,0,0,.15-0.31,0.48,0.48,0,0,0-.3-0.45,6.1,6.1,0,0,0-.7-0.29,6.13,6.13,0,0,1-.62-0.28,1.32,1.32,0,0,1-.49-0.42,1.2,1.2,0,0,1-.19-0.71,1.12,1.12,0,0,1,.23-0.71,1.37,1.37,0,0,1,.6-0.43,2.27,2.27,0,0,1,.83-0.15,2.58,2.58,0,0,1,1.06.21,3,3,0,0,1,.82.54l-0.57.81a2.1,2.1,0,0,0-.58-0.44,1.35,1.35,0,0,0-.62-0.17,0.8,0.8,0,0,0-.4.09,0.29,0.29,0,0,0-.15.27,0.34,0.34,0,0,0,.16.3,1.76,1.76,0,0,0,.43.2L33.92,187a4.52,4.52,0,0,1,.62.3,1.47,1.47,0,0,1,.47.43,1.15,1.15,0,0,1,.18.67,1.31,1.31,0,0,1-.46,1.12,2,2,0,0,1-1.23.34,2.64,2.64,0,0,1-1.26-.3,3.66,3.66,0,0,1-1-.76Z" transform="translate(-1.06 -1.87)"/><path class="cls-1" d="M39.59,186.38l-0.47-.89a5.61,5.61,0,0,1,.86-0.37,3.47,3.47,0,0,1,1.13-.17,2.58,2.58,0,0,1,1.46.38,1.22,1.22,0,0,1,.57,1.08v3.26H41.89V189a1.31,1.31,0,0,1-.62.57,2.17,2.17,0,0,1-.94.19,1.86,1.86,0,0,1-1.17-.36,1.25,1.25,0,0,1-.47-1,1.3,1.3,0,0,1,.54-1.1,2.36,2.36,0,0,1,1.45-.4,2.41,2.41,0,0,1,.68.09,3.07,3.07,0,0,1,.53.2v-0.53a0.57,0.57,0,0,0-.24-0.49A1,1,0,0,0,41,186a2.36,2.36,0,0,0-.88.16A3.53,3.53,0,0,0,39.59,186.38ZM40,188.3a0.47,0.47,0,0,0,.23.42,1,1,0,0,0,.53.15,1.37,1.37,0,0,0,.8-0.23,0.92,0.92,0,0,0,.33-0.81h0a2.07,2.07,0,0,0-1-.21,1.11,1.11,0,0,0-.7.18A0.61,0.61,0,0,0,40,188.3Z" transform="translate(-1.06 -1.87)"/><path class="cls-1" d="M47.31,186.87a1.18,1.18,0,0,0-.17-0.7,0.68,0.68,0,0,0-.58-0.24,0.88,0.88,0,0,0-.66.25,0.94,0.94,0,0,0-.25.69v2.8h-1.3v-4.6h1.3v0.7a1.59,1.59,0,0,1,.55-0.58,1.8,1.8,0,0,1,2.05.23,1.9,1.9,0,0,1,.41,1.31v2.94H47.31v-2.8Z" transform="translate(-1.06 -1.87)"/><path class="cls-1" d="M49.62,187.37a2.56,2.56,0,0,1,.31-1.31,2.12,2.12,0,0,1,.81-0.81,2.2,2.2,0,0,1,1.09-.28,1.77,1.77,0,0,1,1.57.84v-3.94h1.3v7.8H53.4v-0.74a1.77,1.77,0,0,1-1.57.84,2.2,2.2,0,0,1-1.09-.28,2.11,2.11,0,0,1-.81-0.82A2.57,2.57,0,0,1,49.62,187.37Zm1.35,0a1.31,1.31,0,0,0,.36,1,1.2,1.2,0,0,0,.88.36,1.09,1.09,0,0,0,.56-0.16,1.3,1.3,0,0,0,.45-0.46,1.5,1.5,0,0,0,0-1.43,1.29,1.29,0,0,0-.45-0.46,1.09,1.09,0,0,0-.56-0.16,1.21,1.21,0,0,0-.87.35A1.3,1.3,0,0,0,51,187.37Z" transform="translate(-1.06 -1.87)"/><path class="cls-1" d="M60.22,191.87h-1.3v-6.8h1.3v0.76a1.74,1.74,0,0,1,1.57-.9,2.21,2.21,0,0,1,1.08.28,2.15,2.15,0,0,1,.82.83,3,3,0,0,1,0,2.67,2.15,2.15,0,0,1-.82.83,2.21,2.21,0,0,1-1.08.28,1.79,1.79,0,0,1-.92-0.23,1.81,1.81,0,0,1-.65-0.67v3Zm2.44-4.5a1.21,1.21,0,0,0-.37-1,1.28,1.28,0,0,0-.88-0.33,1.21,1.21,0,0,0-1,.58,1.47,1.47,0,0,0,0,1.41,1.2,1.2,0,0,0,.46.43,1.18,1.18,0,0,0,.55.15,1.27,1.27,0,0,0,.88-0.34A1.21,1.21,0,0,0,62.66,187.37Z" transform="translate(-1.06 -1.87)"/><path class="cls-1" d="M65,181.87h1.3v7.8H65v-7.8Z" transform="translate(-1.06 -1.87)"/><path class="cls-1" d="M68.89,187.87a1.13,1.13,0,0,0,.18.7,0.69,0.69,0,0,0,.58.24,0.88,0.88,0,0,0,.66-0.25,0.94,0.94,0,0,0,.25-0.68v-2.8h1.29v4.6H70.57V189a1.58,1.58,0,0,1-.55.58,1.55,1.55,0,0,1-.84.22,1.57,1.57,0,0,1-1.22-.45,1.88,1.88,0,0,1-.41-1.31v-2.94h1.34v2.8Z" transform="translate(-1.06 -1.87)"/><path class="cls-1" d="M72.92,190h1.27a0.91,0.91,0,0,0,.34.71,1.3,1.3,0,0,0,.83.26,1.24,1.24,0,0,0,.87-0.34,1.37,1.37,0,0,0,.37-1v-0.7a1.77,1.77,0,0,1-1.57.81,2.27,2.27,0,0,1-1.08-.27,2.08,2.08,0,0,1-.82-0.79,2.84,2.84,0,0,1,0-2.58,2.07,2.07,0,0,1,.82-0.79A2.26,2.26,0,0,1,75,185a1.76,1.76,0,0,1,1.57.82v-0.72h1.26v4.5a2.62,2.62,0,0,1-.34,1.4,2.05,2.05,0,0,1-.9.8,2.91,2.91,0,0,1-1.22.25,2.59,2.59,0,0,1-1.82-.57A2.12,2.12,0,0,1,72.92,190Zm1.26-2.66a1.22,1.22,0,0,0,.37.95,1.25,1.25,0,0,0,.88.33,1.17,1.17,0,0,0,.56-0.15,1.21,1.21,0,0,0,.45-0.43,1.3,1.3,0,0,0,.18-0.71,1.32,1.32,0,0,0-.18-0.71,1.2,1.2,0,0,0-.45-0.44,1.17,1.17,0,0,0-.56-0.14,1.25,1.25,0,0,0-.87.33A1.23,1.23,0,0,0,74.18,187.33Z" transform="translate(-1.06 -1.87)"/><path class="cls-1" d="M79.06,183.29a0.67,0.67,0,0,1,.23-0.53,0.84,0.84,0,0,1,1.1,0,0.67,0.67,0,0,1,.23.53,0.69,0.69,0,0,1-.23.53,0.83,0.83,0,0,1-1.1,0A0.69,0.69,0,0,1,79.06,183.29Zm0.14,1.78h1.27v4.6H79.2v-4.6Z" transform="translate(-1.06 -1.87)"/><path class="cls-1" d="M84.8,186.87a1.18,1.18,0,0,0-.18-0.7,0.67,0.67,0,0,0-.58-0.24,0.88,0.88,0,0,0-.66.25,0.94,0.94,0,0,0-.25.69v2.8h-1.3v-4.6h1.3v0.7a1.59,1.59,0,0,1,.55-0.58,1.8,1.8,0,0,1,2.05.23,1.89,1.89,0,0,1,.41,1.31v2.94H84.8v-2.8Z" transform="translate(-1.06 -1.87)"/><path class="cls-1" d="M87.62,188a3.77,3.77,0,0,0,.84.67,1.39,1.39,0,0,0,.62.2,0.67,0.67,0,0,0,.38-0.11,0.35,0.35,0,0,0,.16-0.31,0.48,0.48,0,0,0-.3-0.45,6.1,6.1,0,0,0-.7-0.29,6.13,6.13,0,0,1-.62-0.28,1.32,1.32,0,0,1-.5-0.42,1.21,1.21,0,0,1-.19-0.71,1.12,1.12,0,0,1,.22-0.71,1.38,1.38,0,0,1,.6-0.43A2.27,2.27,0,0,1,89,185a2.58,2.58,0,0,1,1.06.21,3,3,0,0,1,.82.54l-0.57.81a2.09,2.09,0,0,0-.58-0.44,1.35,1.35,0,0,0-.62-0.17,0.81,0.81,0,0,0-.41.09,0.29,0.29,0,0,0-.15.27,0.34,0.34,0,0,0,.17.3,1.73,1.73,0,0,0,.42.2L89.65,187a4.5,4.5,0,0,1,.62.3,1.47,1.47,0,0,1,.47.43,1.15,1.15,0,0,1,.18.67,1.3,1.3,0,0,1-.46,1.12,2,2,0,0,1-1.23.34,2.63,2.63,0,0,1-1.26-.3,3.65,3.65,0,0,1-1-.76Z" transform="translate(-1.06 -1.87)"/><path class="cls-1" d="M2.91,222.17a2.26,2.26,0,0,0,.31,1.2,2.16,2.16,0,0,0,.82.79,2.3,2.3,0,0,0,1.12.28,2.62,2.62,0,0,0,1.26-.28,3.14,3.14,0,0,0,.88-0.69v1.62a3.48,3.48,0,0,1-.93.53,3.68,3.68,0,0,1-1.28.19,4.07,4.07,0,0,1-1.49-.26,3.55,3.55,0,0,1-1.19-.75,3.35,3.35,0,0,1-.78-1.15,4.09,4.09,0,0,1,0-2.95,3.35,3.35,0,0,1,.78-1.15,3.55,3.55,0,0,1,1.19-.75,4.07,4.07,0,0,1,1.49-.26,3.76,3.76,0,0,1,1.28.18,3.23,3.23,0,0,1,.93.54v1.62a3.14,3.14,0,0,0-.87-0.69,2.62,2.62,0,0,0-1.26-.28,2.3,2.3,0,0,0-1.12.28,2.17,2.17,0,0,0-.82.79A2.26,2.26,0,0,0,2.91,222.17Z" transform="translate(-1.06 -1.87)"/><path class="cls-1" d="M11.56,222.87a1.18,1.18,0,0,0-.17-0.7,0.68,0.68,0,0,0-.58-0.24,0.88,0.88,0,0,0-.66.25,0.94,0.94,0,0,0-.25.69v2.8H8.59v-7.8h1.3v3.86a1.57,1.57,0,0,1,.55-0.59,1.55,1.55,0,0,1,.84-0.22,1.49,1.49,0,0,1,1.19.45,2,2,0,0,1,.39,1.31v3h-1.3v-2.8Z" transform="translate(-1.06 -1.87)"/><path class="cls-1" d="M13.83,223.37a2.33,2.33,0,0,1,.33-1.26,2.3,2.3,0,0,1,.91-0.84,3,3,0,0,1,2.61,0,2.31,2.31,0,0,1,.91.84,2.53,2.53,0,0,1,0,2.51,2.3,2.3,0,0,1-.91.84,3,3,0,0,1-2.61,0,2.29,2.29,0,0,1-.91-0.84A2.34,2.34,0,0,1,13.83,223.37Zm1.33,0a1.27,1.27,0,0,0,.35.94,1.17,1.17,0,0,0,.86.36,1.19,1.19,0,0,0,.87-0.36,1.26,1.26,0,0,0,.36-0.94,1.28,1.28,0,0,0-.36-1,1.18,1.18,0,0,0-.87-0.36,1.17,1.17,0,0,0-.86.36A1.29,1.29,0,0,0,15.16,223.37Z" transform="translate(-1.06 -1.87)"/><path class="cls-1" d="M19.59,223.37a2.33,2.33,0,0,1,.33-1.26,2.3,2.3,0,0,1,.91-0.84,3,3,0,0,1,2.61,0,2.31,2.31,0,0,1,.91.84,2.53,2.53,0,0,1,0,2.51,2.3,2.3,0,0,1-.91.84,3,3,0,0,1-2.61,0,2.29,2.29,0,0,1-.91-0.84A2.34,2.34,0,0,1,19.59,223.37Zm1.33,0a1.27,1.27,0,0,0,.35.94,1.17,1.17,0,0,0,.86.36,1.19,1.19,0,0,0,.87-0.36,1.26,1.26,0,0,0,.36-0.94,1.28,1.28,0,0,0-.36-1,1.18,1.18,0,0,0-.87-0.36,1.17,1.17,0,0,0-.86.36A1.29,1.29,0,0,0,20.92,223.37Z" transform="translate(-1.06 -1.87)"/><path class="cls-1" d="M25.86,224a3.77,3.77,0,0,0,.85.67,1.39,1.39,0,0,0,.61.2,0.67,0.67,0,0,0,.39-0.11,0.35,0.35,0,0,0,.15-0.31,0.48,0.48,0,0,0-.3-0.45,6.1,6.1,0,0,0-.7-0.29,6.13,6.13,0,0,1-.62-0.28,1.32,1.32,0,0,1-.49-0.42,1.2,1.2,0,0,1-.19-0.71,1.12,1.12,0,0,1,.23-0.71,1.37,1.37,0,0,1,.6-0.43A2.27,2.27,0,0,1,27.2,221a2.58,2.58,0,0,1,1.06.21,3,3,0,0,1,.82.54l-0.57.81a2.1,2.1,0,0,0-.58-0.44,1.35,1.35,0,0,0-.62-0.17,0.8,0.8,0,0,0-.4.09,0.29,0.29,0,0,0-.15.27,0.34,0.34,0,0,0,.16.3,1.76,1.76,0,0,0,.43.2L27.89,223a4.52,4.52,0,0,1,.62.3,1.47,1.47,0,0,1,.47.43,1.15,1.15,0,0,1,.18.67,1.31,1.31,0,0,1-.46,1.12,2,2,0,0,1-1.23.34,2.64,2.64,0,0,1-1.26-.3,3.66,3.66,0,0,1-1-.76Z" transform="translate(-1.06 -1.87)"/><path class="cls-1" d="M34.61,224.47a2.46,2.46,0,0,1-2.39,1.3,2.7,2.7,0,0,1-1.33-.31A2.11,2.11,0,0,1,30,224.6a2.55,2.55,0,0,1-.29-1.23c0-.09,0-0.17,0-0.25s0-.16,0-0.24a2.22,2.22,0,0,1,.76-1.38,2.52,2.52,0,0,1,1.69-.53,2.39,2.39,0,0,1,1.77.63,2.32,2.32,0,0,1,.63,1.71v0.15c0,0.06,0,.13,0,0.2H31.07a1.27,1.27,0,0,0,.38.85,1.15,1.15,0,0,0,.77.27A1.47,1.47,0,0,0,33,224.6a1.38,1.38,0,0,0,.5-0.48Zm-2.4-2.58a1.12,1.12,0,0,0-.74.25,1.11,1.11,0,0,0-.37.72h2.14a1.18,1.18,0,0,0-.3-0.71A1,1,0,0,0,32.21,221.89Z" transform="translate(-1.06 -1.87)"/><path class="cls-1" d="M38.6,217.87h1.3v7.8H38.6v-7.8Z" transform="translate(-1.06 -1.87)"/><path class="cls-1" d="M41.69,222.38l-0.47-.89a5.61,5.61,0,0,1,.86-0.37,3.47,3.47,0,0,1,1.13-.17,2.58,2.58,0,0,1,1.46.38,1.22,1.22,0,0,1,.57,1.08v3.26H44V225a1.31,1.31,0,0,1-.62.57,2.17,2.17,0,0,1-.94.19,1.86,1.86,0,0,1-1.17-.36,1.25,1.25,0,0,1-.47-1,1.3,1.3,0,0,1,.54-1.1,2.36,2.36,0,0,1,1.45-.4,2.41,2.41,0,0,1,.68.09,3.07,3.07,0,0,1,.53.2v-0.53a0.57,0.57,0,0,0-.24-0.49,1,1,0,0,0-.62-0.17,2.36,2.36,0,0,0-.88.16A3.53,3.53,0,0,0,41.69,222.38Zm0.41,1.92a0.47,0.47,0,0,0,.23.42,1,1,0,0,0,.53.15,1.37,1.37,0,0,0,.8-0.23,0.92,0.92,0,0,0,.33-0.81h0a2.07,2.07,0,0,0-1-.21,1.11,1.11,0,0,0-.7.18A0.61,0.61,0,0,0,42.1,224.3Z" transform="translate(-1.06 -1.87)"/><path class="cls-1" d="M50.78,221.07l-3,6.8H46.44l1.17-2.66-1.92-4.14h1.44l1.15,2.85,1.14-2.85h1.36Z" transform="translate(-1.06 -1.87)"/><path class="cls-1" d="M50.89,223.37a2.33,2.33,0,0,1,.34-1.26,2.29,2.29,0,0,1,.91-0.84,3,3,0,0,1,2.61,0,2.32,2.32,0,0,1,.91.84,2.53,2.53,0,0,1,0,2.51,2.31,2.31,0,0,1-.91.84,3,3,0,0,1-2.61,0,2.28,2.28,0,0,1-.91-0.84A2.34,2.34,0,0,1,50.89,223.37Zm1.33,0a1.28,1.28,0,0,0,.36.94,1.18,1.18,0,0,0,.87.36,1.19,1.19,0,0,0,.87-0.36,1.26,1.26,0,0,0,.36-0.94,1.28,1.28,0,0,0-.36-1,1.18,1.18,0,0,0-.87-0.36,1.17,1.17,0,0,0-.87.36A1.3,1.3,0,0,0,52.22,223.37Z" transform="translate(-1.06 -1.87)"/><path class="cls-1" d="M58.3,223.87a1.13,1.13,0,0,0,.18.7,0.69,0.69,0,0,0,.58.24,0.88,0.88,0,0,0,.66-0.25,0.94,0.94,0,0,0,.25-0.68v-2.8h1.29v4.6H60V225a1.58,1.58,0,0,1-.55.58,1.55,1.55,0,0,1-.84.22,1.57,1.57,0,0,1-1.22-.45A1.88,1.88,0,0,1,57,224v-2.94H58.3v2.8Z" transform="translate(-1.06 -1.87)"/><path class="cls-1" d="M62,221.07h0.79v-1.6H64v1.6H64.8v1.1H64v3.5H62.75v-3.5H62v-1.1Z" transform="translate(-1.06 -1.87)"/><path class="cls-1" d="M6.86,259.68a1.83,1.83,0,0,1-.33,1.13,1.91,1.91,0,0,1-.91.65,4.08,4.08,0,0,1-1.37.21H1.76v-7H4.1a3.52,3.52,0,0,1,1.22.2,1.82,1.82,0,0,1,.83.58,1.56,1.56,0,0,1,.31,1,1.41,1.41,0,0,1-.28.89,1.8,1.8,0,0,1-.77.56,2.34,2.34,0,0,1,1,.63A1.62,1.62,0,0,1,6.86,259.68ZM4,255.81H3.19v1.66H4a1.14,1.14,0,0,0,.73-0.22A0.75,0.75,0,0,0,5,256.63,0.72,0.72,0,0,0,4.71,256,1.18,1.18,0,0,0,4,255.81Zm-0.78,4.72H4.11A1.61,1.61,0,0,0,5,260.29a0.88,0.88,0,0,0,.36-0.79A0.83,0.83,0,0,0,5,258.74a1.63,1.63,0,0,0-.91-0.24H3.19v2Z" transform="translate(-1.06 -1.87)"/><path class="cls-1" d="M7.64,259.37A2.33,2.33,0,0,1,8,258.11a2.3,2.3,0,0,1,.91-0.84,3,3,0,0,1,2.61,0,2.31,2.31,0,0,1,.91.84,2.53,2.53,0,0,1,0,2.51,2.3,2.3,0,0,1-.91.84,3,3,0,0,1-2.61,0A2.29,2.29,0,0,1,8,260.62,2.34,2.34,0,0,1,7.64,259.37Zm1.33,0a1.27,1.27,0,0,0,.35.94,1.17,1.17,0,0,0,.86.36,1.19,1.19,0,0,0,.87-0.36,1.26,1.26,0,0,0,.36-0.94,1.28,1.28,0,0,0-.36-1,1.18,1.18,0,0,0-.87-0.36,1.17,1.17,0,0,0-.86.36A1.29,1.29,0,0,0,9,259.37Z" transform="translate(-1.06 -1.87)"/><path class="cls-1" d="M16.36,257.07H17.8l-1.7,2.23,1.8,2.37H16.46l-1-1.46-1,1.46H12.92l1.82-2.37L13,257.07H14.5l0.93,1.33Z" transform="translate(-1.06 -1.87)"/><path class="cls-1" d="M22.94,260.47a2.46,2.46,0,0,1-2.39,1.3,2.7,2.7,0,0,1-1.33-.31,2.11,2.11,0,0,1-.85-0.86,2.55,2.55,0,0,1-.29-1.23c0-.09,0-0.17,0-0.25s0-.16,0-0.24a2.22,2.22,0,0,1,.76-1.38,2.52,2.52,0,0,1,1.69-.53,2.39,2.39,0,0,1,1.77.63,2.32,2.32,0,0,1,.63,1.71v0.15c0,0.06,0,.13,0,0.2H19.4a1.27,1.27,0,0,0,.38.85,1.15,1.15,0,0,0,.77.27,1.47,1.47,0,0,0,.75-0.18,1.38,1.38,0,0,0,.5-0.48Zm-2.4-2.58a1.12,1.12,0,0,0-.74.25,1.11,1.11,0,0,0-.37.72h2.14a1.18,1.18,0,0,0-.3-0.71A1,1,0,0,0,20.54,257.89Z" transform="translate(-1.06 -1.87)"/><path class="cls-1" d="M23.62,259.37a2.56,2.56,0,0,1,.31-1.31,2.12,2.12,0,0,1,.81-0.81,2.2,2.2,0,0,1,1.08-.28,1.77,1.77,0,0,1,1.57.84v-3.94h1.3v7.8H27.4v-0.74a1.77,1.77,0,0,1-1.57.84,2.2,2.2,0,0,1-1.08-.28,2.11,2.11,0,0,1-.81-0.82A2.57,2.57,0,0,1,23.62,259.37Zm1.35,0a1.3,1.3,0,0,0,.36,1,1.2,1.2,0,0,0,.88.36,1.09,1.09,0,0,0,.56-0.16,1.31,1.31,0,0,0,.45-0.46,1.51,1.51,0,0,0,0-1.43,1.3,1.3,0,0,0-.45-0.46,1.09,1.09,0,0,0-.56-0.16,1.21,1.21,0,0,0-.87.35A1.3,1.3,0,0,0,25,259.37Z" transform="translate(-1.06 -1.87)"/><path class="cls-1" d="M66.07,254.67h4v1.25H67.46v1.57H70v1.19H67.46v3H66.07v-7Z" transform="translate(-1.06 -1.87)"/><path class="cls-1" d="M72.45,259.87a1.13,1.13,0,0,0,.18.7,0.69,0.69,0,0,0,.58.24,0.88,0.88,0,0,0,.66-0.25,0.94,0.94,0,0,0,.25-0.68v-2.8h1.29v4.6H74.13V261a1.58,1.58,0,0,1-.55.58,1.55,1.55,0,0,1-.84.22,1.57,1.57,0,0,1-1.22-.45,1.88,1.88,0,0,1-.41-1.31v-2.94h1.34v2.8Z" transform="translate(-1.06 -1.87)"/><path class="cls-1" d="M76.7,253.87H78v7.8H76.7v-7.8Z" transform="translate(-1.06 -1.87)"/><path class="cls-1" d="M79.28,253.87h1.3v7.8h-1.3v-7.8Z" transform="translate(-1.06 -1.87)"/><path class="cls-1" d="M84.18,257.07h1.38l1,2.55,1.29-2.9,1.35,2.91,1-2.56h1.38L89.36,262l-1.48-2.92L86.44,262Z" transform="translate(-1.06 -1.87)"/><path class="cls-1" d="M92.16,255.29a0.67,0.67,0,0,1,.23-0.53,0.84,0.84,0,0,1,1.1,0,0.67,0.67,0,0,1,.23.53,0.69,0.69,0,0,1-.23.53,0.83,0.83,0,0,1-1.1,0A0.69,0.69,0,0,1,92.16,255.29Zm0.14,1.78h1.27v4.6H92.3v-4.6Z" transform="translate(-1.06 -1.87)"/><path class="cls-1" d="M94.62,259.37a2.57,2.57,0,0,1,.31-1.31,2.13,2.13,0,0,1,.82-0.81,2.2,2.2,0,0,1,1.08-.28,1.77,1.77,0,0,1,1.57.84v-3.94h1.3v7.8H98.4v-0.74a1.77,1.77,0,0,1-1.57.84,2.2,2.2,0,0,1-1.08-.28,2.12,2.12,0,0,1-.82-0.82A2.58,2.58,0,0,1,94.62,259.37Zm1.35,0a1.3,1.3,0,0,0,.37,1,1.2,1.2,0,0,0,.88.36,1.09,1.09,0,0,0,.56-0.16,1.31,1.31,0,0,0,.45-0.46,1.5,1.5,0,0,0,0-1.43,1.3,1.3,0,0,0-.45-0.46,1.09,1.09,0,0,0-.56-0.16,1.21,1.21,0,0,0-.87.35A1.3,1.3,0,0,0,96,259.37Z" transform="translate(-1.06 -1.87)"/><path class="cls-1" d="M100.36,257.07h0.79v-1.6h1.26v1.6h0.79v1.1h-0.79v3.5h-1.26v-3.5h-0.79v-1.1Z" transform="translate(-1.06 -1.87)"/><path class="cls-1" d="M106.86,258.87a1.18,1.18,0,0,0-.18-0.7,0.67,0.67,0,0,0-.58-0.24,0.88,0.88,0,0,0-.66.25,0.94,0.94,0,0,0-.25.69v2.8h-1.3v-7.8h1.3v3.86a1.57,1.57,0,0,1,.55-0.59,1.55,1.55,0,0,1,.84-0.22,1.49,1.49,0,0,1,1.2.45,2,2,0,0,1,.38,1.31v3h-1.3v-2.8Z" transform="translate(-1.06 -1.87)"/><path class="cls-1" d="M1.76,290.67H4.11a3.26,3.26,0,0,1,1.42.28,2.07,2.07,0,0,1,.9.78,2.18,2.18,0,0,1,.31,1.17,2.12,2.12,0,0,1-.38,1.27,2.21,2.21,0,0,1-1.1.79l1.9,2.71H5.45l-1.64-2.54H3.19v2.54H1.76v-7ZM4,291.9H3.19V294H4a1.37,1.37,0,0,0,.9-0.28,1,1,0,0,0,.33-0.78,0.93,0.93,0,0,0-.33-0.77A1.39,1.39,0,0,0,4,291.9Z" transform="translate(-1.06 -1.87)"/><path class="cls-1" d="M7.78,291.29A0.67,0.67,0,0,1,8,290.76a0.84,0.84,0,0,1,1.1,0,0.67,0.67,0,0,1,.23.53,0.69,0.69,0,0,1-.23.53,0.83,0.83,0,0,1-1.1,0A0.69,0.69,0,0,1,7.78,291.29Zm0.14,1.78H9.19v4.6H7.92v-4.6Z" transform="translate(-1.06 -1.87)"/><path class="cls-1" d="M10.33,298H11.6a0.92,0.92,0,0,0,.35.71,1.3,1.3,0,0,0,.83.26,1.24,1.24,0,0,0,.87-0.34,1.37,1.37,0,0,0,.37-1v-0.7a1.77,1.77,0,0,1-1.57.81,2.27,2.27,0,0,1-1.08-.27,2.08,2.08,0,0,1-.81-0.79,2.84,2.84,0,0,1,0-2.58,2.06,2.06,0,0,1,.81-0.79,2.26,2.26,0,0,1,1.08-.27,1.76,1.76,0,0,1,1.57.82v-0.72h1.26v4.5a2.62,2.62,0,0,1-.34,1.4,2,2,0,0,1-.9.8,2.91,2.91,0,0,1-1.22.25,2.59,2.59,0,0,1-1.82-.57A2.12,2.12,0,0,1,10.33,298Zm1.26-2.66a1.22,1.22,0,0,0,.36.95,1.25,1.25,0,0,0,.88.33,1.17,1.17,0,0,0,.56-0.15,1.21,1.21,0,0,0,.45-0.43,1.3,1.3,0,0,0,.18-0.71,1.32,1.32,0,0,0-.18-0.71,1.2,1.2,0,0,0-.45-0.44,1.17,1.17,0,0,0-.56-0.14,1.25,1.25,0,0,0-.87.33A1.23,1.23,0,0,0,11.59,295.33Z" transform="translate(-1.06 -1.87)"/><path class="cls-1" d="M19.5,294.87a1.18,1.18,0,0,0-.17-0.7,0.68,0.68,0,0,0-.58-0.24,0.88,0.88,0,0,0-.66.25,0.94,0.94,0,0,0-.25.69v2.8h-1.3v-7.8h1.3v3.86a1.57,1.57,0,0,1,.55-0.59,1.55,1.55,0,0,1,.84-0.22,1.49,1.49,0,0,1,1.19.45,2,2,0,0,1,.39,1.31v3H19.5v-2.8Z" transform="translate(-1.06 -1.87)"/><path class="cls-1" d="M21.49,293.07h0.79v-1.6h1.26v1.6h0.79v1.1H23.54v3.5H22.28v-3.5H21.49v-1.1Z" transform="translate(-1.06 -1.87)"/><path class="cls-1" d="M27.44,292v-1.3h5.2V292H30.76v5.7H29.32V292H27.44Z" transform="translate(-1.06 -1.87)"/><path class="cls-1" d="M32,295.37a2.33,2.33,0,0,1,.33-1.26,2.3,2.3,0,0,1,.91-0.84,3,3,0,0,1,2.61,0,2.31,2.31,0,0,1,.91.84,2.53,2.53,0,0,1,0,2.51,2.3,2.3,0,0,1-.91.84,3,3,0,0,1-2.61,0,2.29,2.29,0,0,1-.91-0.84A2.34,2.34,0,0,1,32,295.37Zm1.33,0a1.27,1.27,0,0,0,.35.94,1.17,1.17,0,0,0,.86.36,1.19,1.19,0,0,0,.87-0.36,1.26,1.26,0,0,0,.36-0.94,1.28,1.28,0,0,0-.36-1,1.18,1.18,0,0,0-.87-0.36,1.17,1.17,0,0,0-.86.36A1.29,1.29,0,0,0,33.36,295.37Z" transform="translate(-1.06 -1.87)"/><path class="cls-1" d="M41.22,290.67h1.43v5.75h2.79v1.25H41.22v-7Z" transform="translate(-1.06 -1.87)"/><path class="cls-1" d="M50.7,296.47a2.46,2.46,0,0,1-2.39,1.3,2.7,2.7,0,0,1-1.33-.31,2.11,2.11,0,0,1-.85-0.86,2.55,2.55,0,0,1-.29-1.23c0-.09,0-0.17,0-0.25s0-.16,0-0.24a2.22,2.22,0,0,1,.76-1.38,2.52,2.52,0,0,1,1.69-.53,2.39,2.39,0,0,1,1.77.63,2.32,2.32,0,0,1,.63,1.71v0.15c0,0.06,0,.13,0,0.2H47.16a1.27,1.27,0,0,0,.38.85,1.15,1.15,0,0,0,.77.27,1.47,1.47,0,0,0,.75-0.18,1.38,1.38,0,0,0,.5-0.48Zm-2.4-2.58a1.12,1.12,0,0,0-.74.25,1.11,1.11,0,0,0-.37.72h2.14a1.18,1.18,0,0,0-.3-0.71A1,1,0,0,0,48.3,293.89Z" transform="translate(-1.06 -1.87)"/><path class="cls-1" d="M51.3,293.07h0.54v-1.7a1.68,1.68,0,0,1,.41-1.21,1.59,1.59,0,0,1,1.2-.43,1.46,1.46,0,0,1,.73.16,1.8,1.8,0,0,1,.42.31l-0.56,1a0.52,0.52,0,0,0-.22-0.2,0.64,0.64,0,0,0-.25,0,0.42,0.42,0,0,0-.35.17,1,1,0,0,0-.13.57v1.41h1.09v1.1H53.09v3.5H51.84v-3.5H51.3v-1.1Z" transform="translate(-1.06 -1.87)"/><path class="cls-1" d="M54.36,293.07h0.79v-1.6h1.26v1.6H57.2v1.1H56.41v3.5H55.15v-3.5H54.36v-1.1Z" transform="translate(-1.06 -1.87)"/><path class="cls-1" d="M1.76,326.67H4a2.86,2.86,0,0,1,1.93.59,2.28,2.28,0,0,1,0,3.27,2.85,2.85,0,0,1-1.93.6H3.19v2.54H1.76v-7ZM4,327.88H3.19v2H4a1.43,1.43,0,0,0,.9-0.26,1,1,0,0,0,0-1.52A1.43,1.43,0,0,0,4,327.88Z" transform="translate(-1.06 -1.87)"/><path class="cls-1" d="M7,331.37a2.33,2.33,0,0,1,.33-1.26,2.3,2.3,0,0,1,.91-0.84,3,3,0,0,1,2.61,0,2.31,2.31,0,0,1,.91.84,2.53,2.53,0,0,1,0,2.51,2.3,2.3,0,0,1-.91.84,2.78,2.78,0,0,1-1.31.3,2.77,2.77,0,0,1-1.3-.3,2.29,2.29,0,0,1-.91-0.84A2.34,2.34,0,0,1,7,331.37Zm1.33,0a1.27,1.27,0,0,0,.35.94,1.17,1.17,0,0,0,.86.36,1.19,1.19,0,0,0,.87-0.36,1.26,1.26,0,0,0,.36-0.94,1.28,1.28,0,0,0-.36-1,1.18,1.18,0,0,0-.87-0.36,1.17,1.17,0,0,0-.86.36A1.29,1.29,0,0,0,8.35,331.37Z" transform="translate(-1.06 -1.87)"/><path class="cls-1" d="M12.26,329.07h1.38l1,2.55,1.29-2.9,1.35,2.91,1-2.56H19.7L17.44,334,16,331.06,14.52,334Z" transform="translate(-1.06 -1.87)"/><path class="cls-1" d="M24.71,332.47a2.46,2.46,0,0,1-2.39,1.3,2.7,2.7,0,0,1-1.33-.31,2.11,2.11,0,0,1-.85-0.86,2.55,2.55,0,0,1-.29-1.23c0-.09,0-0.17,0-0.25s0-.16,0-0.24a2.22,2.22,0,0,1,.76-1.38,2.52,2.52,0,0,1,1.69-.53,2.39,2.39,0,0,1,1.77.63,2.32,2.32,0,0,1,.63,1.71v0.15c0,0.06,0,.13,0,0.2H21.17a1.27,1.27,0,0,0,.38.85,1.15,1.15,0,0,0,.77.27,1.47,1.47,0,0,0,.75-0.18,1.38,1.38,0,0,0,.5-0.48Zm-2.4-2.58a1.12,1.12,0,0,0-.74.25,1.11,1.11,0,0,0-.37.72h2.14a1.18,1.18,0,0,0-.3-0.71A1,1,0,0,0,22.31,329.89Z" transform="translate(-1.06 -1.87)"/><path class="cls-1" d="M28.32,330.43a1.29,1.29,0,0,0-.26-0.19,0.69,0.69,0,0,0-.33-0.07,0.63,0.63,0,0,0-.56.29,1.4,1.4,0,0,0-.19.79v2.43H25.7v-4.6H27v0.56a1.67,1.67,0,0,1,.5-0.49,1.12,1.12,0,0,1,.6-0.18,1.28,1.28,0,0,1,.48.09,0.86,0.86,0,0,1,.36.27Z" transform="translate(-1.06 -1.87)"/><path class="cls-1" d="M34,332.47a2.46,2.46,0,0,1-2.39,1.3,2.7,2.7,0,0,1-1.33-.31,2.11,2.11,0,0,1-.85-0.86,2.55,2.55,0,0,1-.29-1.23c0-.09,0-0.17,0-0.25s0-.16,0-0.24a2.22,2.22,0,0,1,.76-1.38,2.52,2.52,0,0,1,1.69-.53,2.39,2.39,0,0,1,1.77.63,2.32,2.32,0,0,1,.63,1.71v0.15c0,0.06,0,.13,0,0.2H30.47a1.27,1.27,0,0,0,.38.85,1.15,1.15,0,0,0,.77.27,1.47,1.47,0,0,0,.75-0.18,1.38,1.38,0,0,0,.5-0.48Zm-2.4-2.58a1.12,1.12,0,0,0-.74.25,1.11,1.11,0,0,0-.37.72h2.14a1.18,1.18,0,0,0-.3-0.71A1,1,0,0,0,31.61,329.89Z" transform="translate(-1.06 -1.87)"/><path class="cls-1" d="M34.69,331.37a2.56,2.56,0,0,1,.31-1.31,2.12,2.12,0,0,1,.81-0.81A2.2,2.2,0,0,1,36.9,329a1.77,1.77,0,0,1,1.57.84v-3.94h1.3v7.8h-1.3v-0.74a1.77,1.77,0,0,1-1.57.84,2.2,2.2,0,0,1-1.08-.28,2.11,2.11,0,0,1-.81-0.82A2.57,2.57,0,0,1,34.69,331.37Zm1.35,0a1.3,1.3,0,0,0,.36,1,1.2,1.2,0,0,0,.88.36,1.09,1.09,0,0,0,.56-0.16,1.31,1.31,0,0,0,.45-0.46,1.51,1.51,0,0,0,0-1.43,1.3,1.3,0,0,0-.45-0.46,1.09,1.09,0,0,0-.56-0.16,1.21,1.21,0,0,0-.87.35A1.3,1.3,0,0,0,36,331.37Z" transform="translate(-1.06 -1.87)"/><path class="cls-1" d="M49.08,331.37a2.53,2.53,0,0,1-.32,1.3,2.15,2.15,0,0,1-.82.82,2.2,2.2,0,0,1-1.08.28,1.75,1.75,0,0,1-1.57-.85v0.75H44v-7.8h1.3v4a1.75,1.75,0,0,1,1.57-.85,2.2,2.2,0,0,1,1.08.28,2.16,2.16,0,0,1,.82.81A2.53,2.53,0,0,1,49.08,331.37Zm-1.35,0a1.29,1.29,0,0,0-.37-1,1.23,1.23,0,0,0-.88-0.35,1.1,1.1,0,0,0-.56.16,1.29,1.29,0,0,0-.46.46,1.51,1.51,0,0,0,0,1.43,1.29,1.29,0,0,0,.46.46,1.1,1.1,0,0,0,.56.16,1.22,1.22,0,0,0,.88-0.36A1.29,1.29,0,0,0,47.73,331.37Z" transform="translate(-1.06 -1.87)"/><path class="cls-1" d="M54.28,329.07l-3,6.8H49.94l1.17-2.66-1.92-4.14h1.44l1.15,2.85,1.14-2.85h1.36Z" transform="translate(-1.06 -1.87)"/></svg>