<?xml version="1.0" encoding="utf-8"?>
<!-- Generator: Adobe Illustrator 19.0.0, SVG Export Plug-In . SVG Version: 6.00 Build 0)  -->
<svg version="1.1" id="Layer_1" xmlns="http://www.w3.org/2000/svg" xmlns:xlink="http://www.w3.org/1999/xlink" x="0px" y="0px"
	 viewBox="0 0 1000 235.4" style="enable-background:new 0 0 1000 235.4;" xml:space="preserve">
<g id="XMLID_2_">
	<path id="XMLID_131_" d="M170.5,234L170.5,234c-5.9,0-10.7-4.8-10.7-10.7V12.2c0-5.9,4.8-10.7,10.7-10.7h0
		c5.9,0,10.7,4.8,10.7,10.7v211.1C181.2,229.2,176.4,234,170.5,234z"/>
	<path id="XMLID_129_" d="M335.5,121.1l-3.5-2.8c0,0-8.7-7-14.5-11.3c-11.1-8.2-14.8-12.6-14.8-21.3l0.1-0.7
		c0.4-6.6,6.7-11.9,13.5-11.9c5.8,0,10.7,3.7,12.2,8.9c0.1,0.3,0.3,1,0.6,1.7c0.1,0.2,0.1,0.3,0.2,0.5c0.2,0.4,0.4,0.8,0.6,1.2
		c0.1,0.2,0.2,0.4,0.4,0.5c0.1,0.1,0.1,0.2,0.2,0.3l0,0c1.8,2.3,4.6,3.8,7.8,3.8h0.6c4.3,0,8-2.8,9.4-6.6c0.1-0.4,0.3-0.7,0.3-1.1
		c0-0.1,0.1-0.2,0.1-0.4c0.1-0.6,0.2-1.2,0.2-1.8c0,0,0-0.1,0-0.1c0-0.1,0-0.1,0-0.2c0-1.4-0.3-2.8-0.6-3.5
		c-4.7-12.9-17.3-21.8-32-21.8c-17.5,0-34,15.1-34,31c0,9.9,2.5,18.6,14.8,28.9c1,0.8,3.6,2.8,3.7,2.9c3.8,3.2,8.5,7,14.4,11.3
		c11.1,8.2,14,12.6,14,21.3l-0.1,0.7c-0.4,6.6-6,11.8-12.7,11.8c-6.7,0-12.2-4.7-12.8-11.1c0-0.2,0-0.3-0.1-0.5c0,0,0,0,0,0
		c0-5.6-4.5-10.1-10.1-10.1h-0.6c-4.7,0-8.7,3.3-9.8,7.6l0,0c0,0,0,0.2,0,0.3c-0.2,0.7-0.3,1.4-0.3,2.2c0,0.1,0,0.2,0,0.3
		c0,0.3,0,0.5,0,0.6c0,0.4,0.1,0.7,0.2,1c0,0.1,0,0.1,0,0.2c2.5,16,16.6,28.1,33.4,28.1c17.5,0,34-15.1,34-31
		C350.3,140.1,347.8,131.4,335.5,121.1z"/>
	<path id="XMLID_77_" d="M98.9,124l-6.5-5.3c0,0-16.2-13-27.1-21.1C44.7,82.3,38,74.1,37.9,57.9l0.1-1.2
		c0.7-12.3,12.5-22.1,25.1-22.1c10.9,0,19.8,6.9,22.7,16.6c0.2,0.6,0.5,1.8,1,3.1c0.1,0.3,0.3,0.6,0.4,0.9c0.3,0.7,0.7,1.5,1.2,2.2
		c0.2,0.3,0.5,0.7,0.7,1c0.1,0.2,0.2,0.4,0.4,0.5l0.1,0c3.4,4.3,8.6,7.1,14.5,7.1h1.1c8.1,0,14.8-5.2,17.4-12.3
		c0.3-0.7,0.5-1.3,0.6-2c0.1-0.2,0.1-0.4,0.2-0.7c0.2-1.1,0.3-2.2,0.3-3.3c0-0.1,0-0.2,0-0.3c0-0.1,0-0.2,0-0.3
		c0-2.7-0.5-5.1-1.1-6.6C114.1,16.5,90.5,0,63.2,0C30.7,0,0,28,0,57.6c0,18.4,4.7,34.6,27.5,53.8c1.9,1.5,6.8,5.3,6.8,5.3
		c7.1,5.9,15.9,13,26.7,21c20.7,15.3,26,23.5,26,39.7l-0.1,1.4c-0.7,12.2-11.1,21.9-23.7,21.9c-12.5,0-22.8-8.7-23.7-20.6
		c0-0.3-0.1-0.6-0.1-0.9c0,0,0,0,0,0c0-10.4-8.4-18.8-18.8-18.8h-1.2c-8.8,0-16.1,6-18.2,14.2l-0.1,0c0,0.1,0,0.4-0.1,0.5
		c-0.3,1.3-0.5,2.7-0.5,4.1c0,0.2,0,0.3,0.1,0.5c0,0.5,0,0.9,0,1.1c0.1,0.7,0.2,1.3,0.3,1.9c0,0.1,0,0.2,0,0.3
		c4.7,29.8,30.8,52.3,62.2,52.3c32.5,0,63.2-28,63.2-57.6C126.5,159.4,121.8,143.2,98.9,124z"/>
	<path id="XMLID_13_" d="M409.8,182.2c-17.6,0-32.2-13.4-33.3-30.6l0-67.5l0-0.4c1.2-17,15.8-30.4,33.2-30.4
		c17.4,0,32,13.2,33.2,30.1l0,0.8c0,6-4.8,10.8-10.8,10.8h0c-6,0-10.8-4.8-10.8-10.8v-0.4c0-6.3-5.2-11.4-11.6-11.4
		c-6.4,0-11.6,5.1-11.6,11.4v67.8c0,6.3,5.2,11.4,11.6,11.4c6.4,0,11.6-5.1,11.6-11.4v-7.1c0-6,4.8-10.8,10.8-10.8h0
		c6,0,10.8,4.8,10.8,10.8v7.7C441.7,169.1,427.2,182.2,409.8,182.2z"/>
	<path id="XMLID_10_" d="M667.8,182.2c-17.6,0-32.2-13.4-33.3-30.6l0-67.5l0-0.4c1.2-17,15.8-30.4,33.2-30.4
		c17.4,0,32,13.2,33.2,30.1l0,68.8C699.7,169.1,685.2,182.2,667.8,182.2z M667.8,72.4c-6.4,0-11.6,5.1-11.6,11.4v67.8
		c0,6.3,5.2,11.4,11.6,11.4c6.4,0,11.6-5.1,11.6-11.4V83.8C679.4,77.5,674.2,72.4,667.8,72.4z"/>
	<path id="XMLID_7_" d="M966.8,182.2c-17.6,0-32.2-13.4-33.3-30.6l0-67.5l0-0.4c1.2-17,15.8-30.4,33.2-30.4
		c17.5,0,32,13.2,33.2,30.2l0,68.7C998.6,169,984.2,182.2,966.8,182.2z M966.8,72.4c-6.4,0-11.6,5.1-11.6,11.4v67.8
		c0,6.3,5.2,11.4,11.6,11.4c6.4,0,11.6-5.1,11.6-11.4V83.8C978.4,77.5,973.2,72.4,966.8,72.4z"/>
	<path id="XMLID_6_" d="M579.8,168.7V66.7c0-6,4.8-10.8,10.8-10.8l0,0c6,0,10.8,4.8,10.8,10.8v102.1c0,6-4.8,10.8-10.8,10.8l0,0
		C584.6,179.6,579.8,174.7,579.8,168.7z"/>
	<path id="XMLID_5_" d="M525,168.7v-39c0-1.1-0.9-2-2-2h-24.7c-1.1,0-2,0.9-2,2v39c0,6-4.8,10.8-10.8,10.8h0
		c-6,0-10.8-4.8-10.8-10.8V66.7c0-6,4.8-10.8,10.8-10.8h0c6,0,10.8,4.8,10.8,10.8v39c0,1.1,0.9,2,2,2H523c1.1,0,2-0.9,2-2v-39
		c0-6,4.8-10.8,10.8-10.8l0,0c6,0,10.8,4.8,10.8,10.8v102.1c0,6-4.8,10.8-10.8,10.8l0,0C529.9,179.6,525,174.7,525,168.7z"/>
	<path id="XMLID_4_" d="M767.5,182.2c-17.6,0-32.2-13.4-33.3-30.6l0-67.5l0-0.4c1.2-17,15.8-30.4,33.2-30.4
		c17.4,0,32,13.2,33.2,30.1l0,0.8c0,6-4.8,10.8-10.8,10.8h0c-6,0-10.8-4.8-10.8-10.8v-0.4c0-6.3-5.2-11.4-11.6-11.4
		s-11.6,5.1-11.6,11.4v67.8c0,6.3,5.2,11.4,11.6,11.4s11.6-5.1,11.6-11.4v-7.1c0-6,4.8-10.8,10.8-10.8h0c6,0,10.8,4.8,10.8,10.8v7.7
		C799.3,169.1,784.8,182.2,767.5,182.2z"/>
	<path id="XMLID_3_" d="M867.1,182.2c-17.6,0-32.2-13.4-33.3-30.6l0-67.5l0-0.4c1.2-17,15.8-30.4,33.2-30.4
		c17.4,0,32,13.2,33.2,30.1l0,0.8c0,6-4.8,10.8-10.8,10.8h0c-6,0-10.8-4.8-10.8-10.8v-0.4c0-6.3-5.2-11.4-11.6-11.4
		s-11.6,5.1-11.6,11.4v67.8c0,6.3,5.2,11.4,11.6,11.4s11.6-5.1,11.6-11.4v-7.1c0-6,4.8-10.8,10.8-10.8l0,0c6,0,10.8,4.8,10.8,10.8
		v7.7C899,169.1,884.5,182.2,867.1,182.2z"/>
</g>
</svg>
